<?xml version="1.0" encoding="UTF-8"?>
<svg xmlns="http://www.w3.org/2000/svg" xmlns:xlink="http://www.w3.org/1999/xlink" viewBox="0 0 32 32" width="32px" height="32px">
<g id="surface5713159">
<path style=" stroke:none;fill-rule:nonzero;fill:rgb(0%,0.392157%,23.921569%);fill-opacity:1;" d="M 15.859375 2.707031 C 15.039062 2.707031 14.230469 3.007812 13.644531 3.613281 L 3.839844 13.800781 C 0.125 17.570312 6.238281 17.25 8.457031 18.679688 C 9.476562 19.355469 5.171875 20.222656 6.050781 21.113281 C 6.90625 22.011719 11.21875 22.828125 12.074219 23.699219 C 12.929688 24.589844 10.332031 25.535156 11.195312 26.425781 C 12.027344 27.316406 14.019531 26.476562 14.382812 28.503906 C 14.484375 29.09375 15.070312 29.332031 15.835938 29.332031 C 17.023438 29.332031 18.648438 28.75 19.574219 27.972656 C 20.523438 27.152344 17.929688 27.152344 18.785156 26.253906 C 19.550781 25.46875 20.285156 25.121094 20.949219 24.90625 C 22.144531 24.511719 23.113281 24.542969 23.617188 23.238281 C 24.046875 22.152344 20.375 21.378906 21.355469 20.683594 C 23.6875 19.015625 32.261719 18.171875 28.304688 14.164062 L 18.144531 3.613281 C 17.515625 3.007812 16.679688 2.707031 15.859375 2.707031 Z M 15.859375 5.371094 C 15.933594 5.371094 16.121094 5.386719 16.273438 5.519531 L 23 12.5 L 21.332031 13.332031 L 20 12 L 17.332031 13.332031 L 14.667969 10.667969 L 12 13.332031 L 8 13.332031 L 15.566406 5.464844 C 15.621094 5.40625 15.734375 5.371094 15.859375 5.371094 Z M 11.253906 18.761719 C 11.433594 18.761719 15.625 19.457031 17.136719 20.261719 C 17.816406 20.628906 17.949219 21.015625 16.902344 21.371094 C 16.871094 21.382812 16.828125 21.382812 16.789062 21.390625 C 16.730469 21.402344 16.675781 21.414062 16.605469 21.417969 C 15.921875 21.425781 14.699219 21.003906 13.574219 20.496094 C 13.570312 20.492188 13.566406 20.492188 13.566406 20.488281 C 13.394531 20.410156 13.222656 20.328125 13.058594 20.25 C 13.023438 20.234375 12.988281 20.21875 12.957031 20.199219 C 12.828125 20.136719 12.699219 20.070312 12.578125 20.007812 C 12.519531 19.976562 12.460938 19.949219 12.40625 19.917969 C 12.316406 19.867188 12.226562 19.816406 12.140625 19.769531 C 12.070312 19.726562 12 19.6875 11.933594 19.648438 C 11.871094 19.609375 11.816406 19.578125 11.757812 19.542969 C 11.683594 19.496094 11.613281 19.449219 11.550781 19.40625 C 11.507812 19.378906 11.472656 19.351562 11.4375 19.324219 C 11.375 19.28125 11.3125 19.234375 11.261719 19.191406 C 11.238281 19.171875 11.214844 19.152344 11.191406 19.128906 C 11.148438 19.089844 11.105469 19.054688 11.078125 19.019531 C 11.0625 18.996094 11.054688 18.980469 11.042969 18.960938 C 11.027344 18.933594 11.011719 18.902344 11.007812 18.878906 C 11.003906 18.855469 11.019531 18.839844 11.035156 18.824219 C 11.042969 18.8125 11.042969 18.800781 11.058594 18.792969 C 11.097656 18.773438 11.160156 18.761719 11.253906 18.761719 Z M 27.378906 22.011719 C 26.480469 22.046875 25.566406 22.535156 25.332031 23.441406 C 25.332031 24.035156 29.554688 24.375 29.324219 23.300781 C 29.152344 22.394531 28.273438 21.976562 27.378906 22.011719 Z M 9.371094 24.007812 C 7.777344 23.894531 5.742188 25.101562 7.128906 26.289062 C 8.308594 27.324219 10.09375 26.0625 10.667969 24.605469 C 10.378906 24.226562 9.898438 24.046875 9.371094 24.007812 Z M 24.3125 25.332031 C 23.492188 26.175781 24.457031 27.0625 25.261719 26.480469 C 25.472656 26.320312 25.242188 25.535156 24.3125 25.332031 Z M 24.3125 25.332031 "/>
</g>
</svg>
