<?xml version="1.0" encoding="UTF-8"?>
<svg xmlns="http://www.w3.org/2000/svg" xmlns:xlink="http://www.w3.org/1999/xlink" viewBox="0 0 32 32" width="32px" height="32px">
<g id="surface5549617">
<path style=" stroke:none;fill-rule:nonzero;fill:rgb(0%,0.392157%,23.921569%);fill-opacity:1;" d="M 15.332031 2.667969 C 11.222656 2.667969 8 7.441406 8 13.539062 C 8 16.292969 8.6875 18.734375 9.789062 20.625 C 9.71875 20.851562 9.667969 21.085938 9.667969 21.332031 C 9.667969 22.621094 10.710938 23.667969 12 23.667969 C 13.289062 23.667969 14.332031 22.621094 14.332031 21.332031 C 14.332031 20.046875 13.289062 19 12 19 C 11.976562 19 11.949219 19.007812 11.925781 19.007812 C 11.15625 17.542969 10.667969 15.632812 10.667969 13.539062 C 10.667969 9.089844 12.804688 5.332031 15.332031 5.332031 C 17.046875 5.332031 18.578125 7.0625 19.390625 9.558594 C 20.382812 9.71875 21.367188 9.988281 22.351562 10.328125 C 21.449219 5.847656 18.6875 2.667969 15.332031 2.667969 Z M 15.167969 11.332031 C 13.878906 11.332031 12.832031 12.378906 12.832031 13.667969 C 12.832031 14.953125 13.878906 16 15.167969 16 C 16.082031 16 16.867188 15.46875 17.25 14.699219 C 18.972656 14.777344 20.890625 15.277344 22.703125 16.257812 C 25.316406 17.671875 27.289062 19.847656 27.84375 21.933594 C 28.128906 23.003906 28.027344 23.945312 27.546875 24.726562 C 26.589844 26.285156 24.300781 26.90625 21.691406 26.578125 C 20.921875 27.367188 20.039062 28.089844 19.082031 28.746094 C 20.417969 29.132812 21.738281 29.335938 22.980469 29.335938 C 25.960938 29.335938 28.511719 28.25 29.816406 26.125 C 30.6875 24.710938 30.894531 23.023438 30.417969 21.246094 C 29.667969 18.433594 27.253906 15.691406 23.972656 13.914062 C 21.574219 12.613281 19.078125 12.007812 16.816406 12.019531 C 16.394531 11.59375 15.8125 11.332031 15.167969 11.332031 Z M 5.464844 15.65625 C 3.515625 17.269531 2.121094 19.234375 1.582031 21.246094 C 1.105469 23.023438 1.316406 24.710938 2.183594 26.121094 C 3.488281 28.246094 6.039062 29.332031 9.019531 29.332031 C 11.277344 29.332031 13.777344 28.714844 16.167969 27.417969 C 18.445312 26.183594 20.289062 24.484375 21.464844 22.621094 C 22.53125 22.40625 23.332031 21.460938 23.332031 20.332031 C 23.332031 19.046875 22.289062 18 21 18 C 19.710938 18 18.667969 19.046875 18.667969 20.332031 C 18.667969 20.769531 18.792969 21.171875 19.003906 21.519531 C 18.058594 22.875 16.625 24.140625 14.898438 25.074219 C 10.738281 27.328125 5.953125 27.167969 4.453125 24.722656 C 3.972656 23.941406 3.871094 23.003906 4.160156 21.933594 C 4.449219 20.84375 5.128906 19.734375 6.082031 18.71875 C 5.789062 17.753906 5.582031 16.726562 5.464844 15.65625 Z M 5.464844 15.65625 "/>
</g>
</svg>
