<?xml version="1.0" encoding="UTF-8"?>
<svg xmlns="http://www.w3.org/2000/svg" xmlns:xlink="http://www.w3.org/1999/xlink" viewBox="0 0 32 32" width="32px" height="32px">
<g id="surface5712319">
<path style=" stroke:none;fill-rule:nonzero;fill:rgb(0%,0.392157%,23.921569%);fill-opacity:1;" d="M 26.363281 3.851562 C 25.636719 3.765625 25.234375 4.625 24.824219 5.675781 C 23.742188 8.453125 20.5625 10.226562 17.773438 10.808594 C 17.15625 10.449219 16.445312 10.238281 15.679688 10.238281 C 14.671875 10.238281 13.746094 10.601562 13.027344 11.199219 C 10.273438 10.980469 8.234375 7.996094 8.210938 7.960938 L 7.039062 6.214844 L 7.039062 12.382812 C 6.78125 12.746094 6.601562 13.167969 6.5 13.617188 C 5.1875 12.699219 3.660156 12.511719 2.535156 13.261719 C 1.910156 13.675781 1.496094 14.328125 1.34375 15.140625 C 1.121094 16.324219 1.472656 17.675781 2.300781 18.859375 C 3.320312 20.304688 4.789062 21.128906 6.121094 21.128906 C 6.691406 21.128906 7.234375 20.976562 7.703125 20.660156 C 8.332031 20.246094 8.746094 19.59375 8.898438 18.777344 C 8.957031 18.453125 8.972656 18.117188 8.949219 17.777344 C 9.261719 17.867188 9.585938 17.921875 9.921875 17.921875 C 10.023438 17.921875 10.128906 17.910156 10.234375 17.898438 C 10.246094 18.277344 10.222656 18.648438 10.15625 19.011719 C 9.9375 20.175781 9.335938 21.113281 8.414062 21.726562 C 8.167969 21.890625 7.898438 22.019531 7.621094 22.121094 C 8.308594 22.554688 9.058594 22.976562 9.78125 23.289062 C 12.355469 24.417969 14.757812 24.976562 16.921875 24.976562 C 18.738281 24.976562 20.382812 24.570312 21.820312 23.777344 C 22.15625 23.960938 22.488281 24.132812 22.820312 24.28125 C 24.5625 25.078125 26.289062 25.65625 27.570312 25.886719 C 27.59375 26.03125 27.625 26.179688 27.671875 26.332031 C 28.144531 27.863281 30.683594 28.636719 31.191406 28.777344 L 32 29 L 32 28.160156 C 32.003906 27.109375 31.925781 24.578125 31.210938 23.808594 C 30.574219 23.117188 29.722656 22.878906 28.957031 23.148438 C 28.050781 22.390625 26.6875 21.546875 25.097656 20.78125 C 27.964844 16.386719 27.609375 7.820312 27.347656 5.824219 C 27.210938 4.816406 27.097656 3.941406 26.363281 3.851562 Z M 15.679688 11.519531 C 17.265625 11.519531 18.558594 12.8125 18.558594 14.398438 C 18.558594 14.578125 18.539062 14.753906 18.507812 14.925781 C 18.308594 14.074219 17.550781 13.441406 16.640625 13.441406 C 16.585938 13.441406 16.535156 13.453125 16.480469 13.457031 C 16.933594 13.53125 17.28125 13.925781 17.28125 14.398438 C 17.28125 14.929688 16.851562 15.359375 16.320312 15.359375 C 15.789062 15.359375 15.359375 14.929688 15.359375 14.398438 C 15.359375 14.140625 15.464844 13.90625 15.632812 13.734375 C 15.085938 14.070312 14.71875 14.671875 14.71875 15.359375 C 14.71875 16.269531 15.355469 17.03125 16.207031 17.226562 C 16.035156 17.257812 15.859375 17.28125 15.679688 17.28125 C 14.09375 17.28125 12.800781 15.988281 12.800781 14.398438 C 12.800781 12.8125 14.09375 11.519531 15.679688 11.519531 Z M 9.921875 12.160156 C 10.648438 12.160156 11.324219 12.515625 11.738281 13.097656 C 11.664062 13.328125 11.609375 13.566406 11.570312 13.808594 C 11.296875 13.582031 10.945312 13.441406 10.558594 13.441406 C 10.515625 13.441406 10.472656 13.449219 10.425781 13.453125 C 10.804688 13.515625 11.09375 13.84375 11.09375 14.238281 C 11.09375 14.683594 10.734375 15.039062 10.292969 15.039062 C 9.851562 15.039062 9.492188 14.683594 9.492188 14.238281 C 9.492188 14.023438 9.578125 13.828125 9.71875 13.683594 C 9.265625 13.964844 8.960938 14.464844 8.960938 15.039062 C 8.960938 15.820312 9.519531 16.46875 10.261719 16.609375 C 10.148438 16.628906 10.035156 16.640625 9.921875 16.640625 C 9.449219 16.640625 8.996094 16.496094 8.609375 16.21875 L 8.550781 16.175781 C 8.390625 15.796875 8.191406 15.421875 7.941406 15.0625 C 7.871094 14.964844 7.796875 14.871094 7.722656 14.78125 C 7.699219 14.65625 7.679688 14.527344 7.679688 14.398438 C 7.679688 13.164062 8.683594 12.160156 9.921875 12.160156 Z M 3.839844 14.078125 C 4.546875 14.078125 5.121094 14.796875 5.121094 15.679688 C 5.121094 16.566406 4.546875 17.28125 3.839844 17.28125 C 3.132812 17.28125 2.558594 16.566406 2.558594 15.679688 C 2.558594 14.796875 3.132812 14.078125 3.839844 14.078125 Z M 19.839844 17.921875 C 19.839844 17.921875 20.628906 18.28125 21.195312 18.859375 C 21.199219 18.859375 21.199219 18.863281 21.203125 18.867188 C 21.261719 18.921875 21.3125 18.980469 21.359375 19.039062 C 21.613281 19.351562 21.789062 19.710938 21.75 20.101562 L 21.753906 20.105469 C 21.746094 20.160156 21.738281 20.21875 21.726562 20.273438 C 21.691406 20.414062 21.621094 20.558594 21.53125 20.710938 C 22.316406 20.96875 23.152344 21.292969 24.011719 21.679688 C 25.585938 22.398438 27.007812 23.230469 27.933594 23.957031 C 27.808594 24.140625 27.710938 24.355469 27.636719 24.589844 C 26.480469 24.363281 24.941406 23.84375 23.351562 23.121094 C 22.402344 22.683594 21.402344 22.070312 20.558594 21.503906 C 20.300781 21.601562 20.015625 21.667969 19.710938 21.707031 C 17.066406 22.054688 12.800781 20.480469 12.800781 20.480469 C 12.800781 20.480469 20.390625 20.898438 20.390625 19.421875 C 20.390625 18.683594 19.839844 17.921875 19.839844 17.921875 Z M 19.839844 17.921875 "/>
</g>
</svg>
