<?xml version="1.0" encoding="UTF-8"?>
<svg xmlns="http://www.w3.org/2000/svg" xmlns:xlink="http://www.w3.org/1999/xlink" viewBox="0 0 36 36" width="36px" height="36px">
<g id="surface47595795">
<path style=" stroke:none;fill-rule:nonzero;fill:rgb(0%,0.392157%,23.921569%);fill-opacity:1;" d="M 21.503906 2.164062 C 21.429688 2.175781 21.351562 2.199219 21.28125 2.234375 C 20.660156 2.539062 19.957031 3.449219 19.824219 3.632812 C 19.8125 3.640625 19.804688 3.652344 19.800781 3.664062 C 19.105469 4.707031 18.734375 5.921875 18.71875 7.191406 C 18.710938 8.140625 18.898438 9.085938 19.273438 9.992188 C 20.152344 12.097656 21.972656 13.84375 24.140625 14.660156 C 24.214844 14.683594 24.285156 14.710938 24.414062 14.753906 C 24.421875 14.761719 24.53125 14.792969 24.546875 14.796875 L 24.625 14.824219 C 24.738281 14.859375 24.855469 14.898438 24.964844 14.921875 C 25.539062 15.035156 26.09375 15.101562 26.617188 15.117188 C 26.707031 15.117188 26.796875 15.121094 26.886719 15.121094 C 30.832031 15.121094 32.363281 12.335938 32.871094 11.40625 C 32.921875 11.316406 32.960938 11.246094 32.992188 11.199219 C 32.992188 11.195312 32.992188 11.195312 32.996094 11.195312 C 33.21875 10.863281 33.132812 10.417969 32.804688 10.191406 C 32.480469 9.96875 32.03125 10.054688 31.804688 10.382812 C 30.75 11.933594 28.953125 12.402344 26.457031 11.785156 C 26.273438 11.738281 26.070312 11.667969 25.890625 11.601562 C 25.652344 11.515625 25.417969 11.417969 25.195312 11.3125 C 24.761719 11.09375 24.351562 10.835938 23.980469 10.550781 C 21.785156 8.847656 20.929688 5.308594 22.210938 3.261719 C 22.382812 2.988281 22.351562 2.636719 22.132812 2.394531 C 21.972656 2.214844 21.734375 2.132812 21.503906 2.164062 Z M 15.125 3.601562 C 14.960938 3.597656 14.796875 3.652344 14.660156 3.761719 C 13.574219 4.648438 12.460938 6.101562 12.410156 6.160156 C 12.40625 6.171875 12.398438 6.179688 12.390625 6.191406 C 10.421875 9.054688 10.273438 13.132812 12.015625 16.578125 C 12.289062 17.125 12.597656 17.644531 12.925781 18.125 L 13.023438 18.265625 C 13.304688 18.671875 13.617188 19.132812 14.015625 19.492188 C 14.152344 19.652344 14.300781 19.804688 14.449219 19.949219 L 14.519531 20.023438 L 14.578125 20.082031 C 14.726562 20.226562 14.878906 20.371094 15.035156 20.511719 L 15.039062 20.511719 C 15.050781 20.527344 15.066406 20.539062 15.082031 20.554688 C 15.257812 20.710938 15.4375 20.859375 15.675781 21.046875 L 15.742188 21.097656 C 15.925781 21.246094 16.117188 21.386719 16.308594 21.523438 C 16.328125 21.539062 16.347656 21.550781 16.367188 21.566406 C 16.4375 21.609375 16.503906 21.652344 16.570312 21.703125 L 16.640625 21.746094 L 16.71875 21.796875 C 16.859375 21.890625 17 21.980469 17.203125 22.09375 C 17.332031 22.171875 17.46875 22.253906 17.558594 22.296875 C 17.597656 22.320312 17.640625 22.34375 17.738281 22.394531 L 17.957031 22.511719 C 17.96875 22.515625 18.019531 22.539062 18.03125 22.546875 C 18.175781 22.617188 18.324219 22.6875 18.472656 22.757812 L 18.699219 22.855469 C 18.847656 22.921875 19 22.984375 19.1875 23.054688 L 19.269531 23.085938 C 19.277344 23.089844 19.347656 23.117188 19.351562 23.117188 C 19.488281 23.167969 19.625 23.214844 19.761719 23.257812 L 20.078125 23.363281 C 20.234375 23.417969 20.417969 23.480469 20.617188 23.511719 C 21.601562 23.675781 22.554688 23.761719 23.457031 23.761719 C 23.5625 23.761719 23.671875 23.757812 23.773438 23.757812 C 31.722656 23.582031 33.789062 16.828125 33.808594 16.761719 C 33.90625 16.421875 33.746094 16.058594 33.425781 15.90625 C 33.105469 15.753906 32.722656 15.863281 32.523438 16.15625 C 30.511719 19.097656 26.703125 20.339844 22.824219 19.316406 C 22.644531 19.269531 22.46875 19.21875 22.253906 19.148438 C 22.214844 19.140625 22.183594 19.128906 22.125 19.105469 C 22 19.066406 21.875 19.023438 21.734375 18.96875 L 21.535156 18.894531 C 21.421875 18.847656 21.304688 18.804688 21.164062 18.742188 L 21.070312 18.699219 C 20.898438 18.628906 20.734375 18.546875 20.585938 18.472656 L 20.175781 18.257812 C 20.082031 18.214844 20 18.164062 19.875 18.085938 L 19.804688 18.046875 L 19.734375 18.003906 C 19.628906 17.945312 19.523438 17.878906 19.429688 17.8125 L 19.359375 17.769531 C 19.355469 17.765625 19.300781 17.726562 19.292969 17.722656 C 19.210938 17.667969 19.128906 17.613281 19.050781 17.5625 C 18.875 17.441406 18.703125 17.3125 18.503906 17.152344 L 18.425781 17.089844 C 16.570312 15.605469 15.195312 13.625 14.550781 11.503906 C 13.953125 9.554688 14.398438 7.003906 15.742188 4.679688 C 15.914062 4.378906 15.851562 3.996094 15.585938 3.773438 C 15.453125 3.660156 15.289062 3.601562 15.125 3.601562 Z M 7.203125 5.761719 C 7.03125 5.761719 6.855469 5.820312 6.71875 5.945312 C 5.34375 7.179688 4.3125 8.78125 4.203125 8.964844 C 1.261719 13.246094 1.828125 19.902344 3.847656 23.972656 C 3.886719 24.058594 3.929688 24.140625 3.972656 24.222656 L 4 24.265625 C 4.035156 24.347656 4.078125 24.433594 4.09375 24.449219 C 4.113281 24.503906 4.148438 24.5625 4.164062 24.578125 C 4.195312 24.648438 4.230469 24.710938 4.292969 24.816406 L 4.523438 25.214844 C 4.554688 25.265625 4.589844 25.324219 4.601562 25.34375 C 4.644531 25.417969 4.695312 25.492188 4.742188 25.570312 L 4.855469 25.75 C 4.886719 25.800781 4.921875 25.851562 4.945312 25.878906 C 5.058594 26.050781 5.167969 26.226562 5.292969 26.390625 C 5.296875 26.402344 5.304688 26.40625 5.308594 26.414062 L 5.355469 26.472656 C 5.457031 26.621094 5.558594 26.761719 5.652344 26.875 L 6.0625 27.398438 C 6.070312 27.402344 6.113281 27.457031 6.117188 27.460938 L 6.175781 27.527344 C 6.300781 27.679688 6.433594 27.832031 6.5625 27.980469 C 6.585938 28 6.605469 28.019531 6.625 28.042969 C 6.75 28.179688 6.878906 28.320312 7.015625 28.460938 L 7.144531 28.585938 C 7.25 28.699219 7.359375 28.808594 7.46875 28.914062 C 7.46875 28.914062 7.523438 28.964844 7.523438 28.964844 L 7.636719 29.070312 C 7.769531 29.199219 7.910156 29.328125 8.019531 29.417969 C 8.023438 29.425781 8.125 29.515625 8.132812 29.519531 C 8.265625 29.636719 8.398438 29.75 8.53125 29.859375 L 9.222656 30.40625 C 9.335938 30.492188 9.457031 30.574219 9.589844 30.671875 C 9.636719 30.707031 9.683594 30.742188 9.730469 30.773438 C 9.75 30.789062 9.773438 30.804688 9.789062 30.8125 L 10.304688 31.160156 C 10.492188 31.285156 10.683594 31.398438 10.914062 31.535156 L 11.035156 31.605469 C 11.179688 31.691406 11.324219 31.777344 11.464844 31.847656 C 11.546875 31.894531 11.625 31.933594 11.695312 31.96875 C 11.796875 32.023438 11.902344 32.082031 12.066406 32.160156 C 12.078125 32.167969 12.195312 32.226562 12.210938 32.230469 C 12.371094 32.3125 12.539062 32.390625 12.746094 32.480469 C 12.746094 32.484375 12.8125 32.515625 12.8125 32.515625 C 13.003906 32.597656 13.191406 32.675781 13.433594 32.773438 C 13.476562 32.789062 13.515625 32.804688 13.523438 32.808594 C 13.695312 32.875 13.878906 32.941406 14.027344 32.996094 C 14.042969 33 14.117188 33.03125 14.132812 33.039062 C 14.332031 33.105469 14.53125 33.171875 14.78125 33.25 C 14.824219 33.261719 14.871094 33.277344 14.875 33.277344 L 15.019531 33.324219 C 15.191406 33.375 15.367188 33.433594 15.554688 33.46875 C 16.894531 33.714844 18.203125 33.839844 19.441406 33.839844 C 29.757812 33.839844 33.042969 25.539062 33.074219 25.457031 C 33.203125 25.121094 33.0625 24.746094 32.75 24.570312 C 32.4375 24.398438 32.046875 24.480469 31.828125 24.765625 C 29.179688 28.25 24.1875 29.542969 18.472656 28.230469 C 18.335938 28.195312 18.195312 28.15625 18.054688 28.113281 L 17.785156 28.03125 C 17.601562 27.976562 17.421875 27.914062 17.242188 27.851562 C 17.242188 27.851562 17.160156 27.820312 17.160156 27.820312 C 17 27.769531 16.84375 27.707031 16.707031 27.652344 L 16.546875 27.589844 C 16.375 27.519531 16.199219 27.445312 16.03125 27.371094 L 15.933594 27.328125 C 15.78125 27.257812 15.632812 27.191406 15.488281 27.117188 C 15.476562 27.113281 15.363281 27.054688 15.351562 27.054688 C 15.25 27.003906 15.148438 26.949219 15.019531 26.878906 L 14.429688 26.5625 C 14.371094 26.523438 14.308594 26.488281 14.25 26.457031 C 14.074219 26.347656 13.890625 26.238281 13.710938 26.121094 C 13.667969 26.097656 13.632812 26.070312 13.5625 26.019531 C 13.4375 25.941406 13.316406 25.859375 13.140625 25.738281 L 13.070312 25.6875 C 12.949219 25.601562 12.832031 25.511719 12.730469 25.4375 C 12.671875 25.394531 12.609375 25.34375 12.507812 25.265625 C 12.417969 25.195312 12.328125 25.128906 12.242188 25.0625 L 12.085938 24.933594 C 11.953125 24.824219 11.828125 24.714844 11.699219 24.605469 C 11.683594 24.585938 11.667969 24.574219 11.648438 24.5625 C 11.507812 24.429688 11.359375 24.296875 11.183594 24.132812 L 10.675781 23.625 C 10.550781 23.5 10.429688 23.367188 10.289062 23.214844 C 10.160156 23.070312 10.035156 22.925781 9.867188 22.730469 L 9.566406 22.359375 C 9.527344 22.304688 9.488281 22.253906 9.441406 22.195312 C 9.335938 22.054688 9.234375 21.917969 9.128906 21.773438 C 6.328125 17.914062 5.597656 9.859375 7.78125 6.90625 C 8 6.613281 7.960938 6.195312 7.683594 5.945312 C 7.546875 5.820312 7.375 5.761719 7.203125 5.761719 Z M 7.203125 5.761719 "/>
</g>
</svg>
